<svg width="270" height="303" viewBox="0 0 270 303" fill="none" xmlns="http://www.w3.org/2000/svg">
<path d="M54.36 168.96C62.22 113.57 56.36 84.67 36.8 82.26C53.37 74.25 62.98 84.33 65.64 112.51C68.31 140.7 65.09 168.94 56.01 197.23L54.36 168.96Z" fill="#F6DC80"/>
<path d="M112.14 177.76C126.21 136.14 126.07 112.01 111.72 105.39C98.64 144.39 98.7801 168.51 112.14 177.76Z" fill="#FBE796"/>
<path d="M68.4 261.99C67.98 261.99 67.56 261.91 67.15 261.75C65.41 261.05 64.5599 259.08 65.2599 257.35C68.2299 249.92 138.66 75.16 195.26 50.16C196.97 49.41 198.97 50.18 199.73 51.89C200.48 53.6 199.71 55.6 198 56.36C143.9 80.25 72.26 258.07 71.55 259.86C71.02 261.19 69.75 261.99 68.4 261.99Z" fill="#F9D890"/>
<path d="M46.76 265.54C46.62 265.54 46.4801 265.53 46.3401 265.51C44.4901 265.28 43.1701 263.59 43.4001 261.73C44.3901 253.8 68.1 66.88 116.5 28.32C117.96 27.15 120.09 27.39 121.25 28.86C122.42 30.32 122.18 32.45 120.72 33.62C74.47 70.46 50.36 260.65 50.12 262.57C49.91 264.28 48.45 265.54 46.76 265.54Z" fill="#F9D890"/>
<path d="M79.9 296.01C79.37 296.01 78.8299 295.88 78.3199 295.62C76.6699 294.74 76.04 292.69 76.91 291.04C80.65 283.97 169.19 117.65 228.12 98.7799C229.9 98.2099 231.8 99.1899 232.37 100.98C232.94 102.76 231.96 104.66 230.18 105.23C173.86 123.26 83.8 292.5 82.9 294.21C82.29 295.35 81.12 296.01 79.9 296.01Z" fill="#F9D890"/>
<path d="M114.68 239.72C132.44 209.89 137.41 189.23 129.58 177.76C112.87 201.68 107.91 222.34 114.68 239.72Z" fill="#F7DE64"/>
<path d="M69.65 259.03C80.93 193.56 112.88 152.36 165.48 135.43C107.46 205.18 75.52 246.38 69.65 259.03Z" fill="#FAEF65"/>
<path d="M102.49 129.33C108.48 147.09 107.91 168.2 100.8 192.65L88.1801 221.32C92.0801 176.02 96.85 145.36 102.49 129.33Z" fill="#F7DE4A"/>
<path d="M61.9399 190.84C63.9099 184.6 70.83 180.24 82.68 177.76C61.58 220.87 50.23 247.96 48.65 259.03C47.63 228.38 52.0499 205.65 61.9399 190.84Z" fill="#FAEF65"/>
<path d="M36.8 136.97C60.69 145.52 63.89 186.21 46.42 259.03C46.1 193.68 42.89 153 36.8 136.97Z" fill="#FAEF65"/>
<path d="M83.49 132.85C71.17 177.78 62.01 201.88 56.01 205.15C59.46 163.86 68.62 139.76 83.49 132.85Z" fill="#FDF498"/>
<path d="M182.63 206.43C132.05 194.39 96.68 221.63 76.52 288.15C131.61 236.68 166.98 209.44 182.63 206.43Z" fill="#FAEF65"/>
<path d="M75.91 288.83C95.31 248.79 133.08 231.09 189.23 235.72C147.88 268.44 110.11 286.14 75.91 288.83Z" fill="#FDF498"/>
<path d="M218.53 108C232.07 99.57 240.95 102.81 245.17 117.71C227.71 121.17 218.83 117.93 218.53 108Z" fill="#F7F190"/>
<path d="M209.5 87.91C215.07 94.68 214.16 104.01 206.79 115.9C199.71 102.51 200.62 93.17 209.5 87.91Z" fill="#F3C849"/>
<path d="M202.78 121.54C209.07 114.62 217.7 115.6 228.69 124.48C217.18 131.7 208.54 130.72 202.78 121.54Z" fill="#F5CF49"/>
<path d="M218.53 104.44C215.37 91.16 220.48 82.64 233.88 78.88C229.36 94.45 224.25 102.97 218.53 104.44Z" fill="#F7DE4A"/>
<path d="M230.78 99.05C230.44 86.8 237.19 79.7 251.04 77.75C249.81 90.59 243.06 97.69 230.78 99.05Z" fill="#F4E294"/>
<path d="M236.36 101.9C241.48 91.82 252.46 91.44 269.32 100.77C265.26 110.86 254.27 111.23 236.36 101.9Z" fill="#FFE346"/>
<path d="M193.02 128.53C201.45 118.45 199.56 109.96 187.37 103.03C181.81 113.55 183.69 122.05 193.02 128.53Z" fill="#F7DE4A"/>
<path d="M188.05 132.61C198.44 126.13 207.24 126.51 214.46 133.73C207.24 143.07 198.44 142.69 188.05 132.61Z" fill="#F7DE4A"/>
<path d="M183.08 139.63C192.23 130.55 192.62 122.63 184.27 115.9C176.26 121.55 175.86 129.46 183.08 139.63Z" fill="#FFF346"/>
<path d="M177.67 145.42C181.05 139.66 186.75 137.97 194.77 140.34C195.56 147.22 189.86 148.92 177.67 145.42Z" fill="#F3C849"/>
<path d="M174.96 146.56C178.12 140.94 177.1 135.88 171.91 131.36C168.3 137.06 169.31 142.13 174.96 146.56Z" fill="#F7DE4A"/>
<path d="M178.9 66C190.56 55.12 199.9 56.58 206.91 70.38C190.45 77.15 181.11 75.69 178.9 66Z" fill="#F7F190"/>
<path d="M166.16 48.03C172.93 53.6 173.85 62.93 168.91 76.02C159.38 64.24 158.47 54.92 166.16 48.03Z" fill="#F3C849"/>
<path d="M166.07 82.33C170.9 74.33 179.56 73.62 192.05 80.21C182.15 89.52 173.49 90.23 166.07 82.33Z" fill="#F5CF49"/>
<path d="M178.21 62.5099C172.55 50.0899 175.92 40.74 188.34 34.46C186.92 50.61 183.54 59.9599 178.21 62.5099Z" fill="#F7DE4A"/>
<path d="M189.19 54.85C186.49 42.91 191.75 34.64 204.95 30.04C206.23 42.87 200.98 51.14 189.19 54.85Z" fill="#F4E294"/>
<path d="M195.22 56.58C198.3 45.6899 209 43.2 227.34 49.1C225.3 59.78 214.6 62.27 195.22 56.58Z" fill="#FFE346"/>
<path d="M157.84 91.07C164.16 79.56 160.67 71.58 147.38 67.15C143.94 78.54 147.43 86.52 157.84 91.07Z" fill="#F7DE4A"/>
<path d="M153.75 96.0299C162.69 87.6799 171.4 86.3399 179.88 92.0399C174.6 102.59 165.89 103.92 153.75 96.0299Z" fill="#F7DE4A"/>
<path d="M150.24 103.89C157.45 93.2 156.31 85.36 146.81 80.37C140.04 87.46 141.18 95.3 150.24 103.89Z" fill="#FFF346"/>
<path d="M146.04 110.61C148.25 104.3 153.51 101.54 161.83 102.32C163.94 108.92 158.67 111.69 146.04 110.61Z" fill="#F3C849"/>
<path d="M143.6 112.25C145.62 106.13 143.64 101.36 137.67 97.9299C135.23 104.22 137.21 108.99 143.6 112.25Z" fill="#F7DE4A"/>
<path d="M111.75 39.9C121.7 27.43 131.15 27.51 140.1 40.15C124.8 49.24 115.35 49.16 111.75 39.9Z" fill="#F7F190"/>
<path d="M96.52 23.98C104.03 28.5 106.3 37.6 103.32 51.27C92.1799 41.01 89.91 31.91 96.52 23.98Z" fill="#F3C849"/>
<path d="M101.43 57.92C105.04 49.3 113.5 47.34 126.83 52.04C118.39 62.69 109.92 64.65 101.43 57.92Z" fill="#F5CF49"/>
<path d="M110.56 36.54C103.14 25.08 105.12 15.34 116.49 7.31998C117.43 23.5 115.45 33.24 110.56 36.54Z" fill="#F7DE4A"/>
<path d="M120.3 27.37C115.89 15.94 119.88 6.99997 132.28 0.529968C135.41 13.04 131.42 21.98 120.3 27.37Z" fill="#F4E294"/>
<path d="M126.52 28.2C127.97 16.98 138.2 12.96 157.21 16.12C156.75 26.98 146.52 31.01 126.52 28.2Z" fill="#FFE346"/>
<path d="M94.5601 67.77C99.1401 55.46 94.53 48.08 80.72 45.62C78.99 57.4 83.6001 64.78 94.5601 67.77Z" fill="#F7DE4A"/>
<path d="M91.24 73.27C98.87 63.7 107.29 61.12 116.51 65.51C112.82 76.72 104.4 79.31 91.24 73.27Z" fill="#F7DE4A"/>
<path d="M88.91 81.56C94.49 69.94 92.22 62.35 82.1 58.79C76.43 66.79 78.7 74.38 88.91 81.56Z" fill="#FFF346"/>
<path d="M85.73 88.8199C87 82.2599 91.81 78.7599 100.15 78.3199C103.2 84.5399 98.39 88.0399 85.73 88.8199Z" fill="#F3C849"/>
<path d="M83.5601 90.8C84.6601 84.45 82.01 80.02 75.61 77.49C74.11 84.07 76.7601 88.51 83.5601 90.8Z" fill="#F7DE4A"/>
<path d="M162.35 293.55C162.35 298.77 126.17 303 81.53 303C36.9 303 0.719971 298.77 0.719971 293.55C0.719971 288.33 36.9 284.11 81.53 284.11C126.17 284.11 162.35 288.33 162.35 293.55Z" fill="#D2E8C3"/>
</svg>
