<svg width="162" height="243" viewBox="0 0 162 243" fill="none" xmlns="http://www.w3.org/2000/svg">
<path d="M161.75 233.09C161.75 238.31 125.56 242.54 80.93 242.54C36.3 242.54 0.119995 238.31 0.119995 233.09C0.119995 227.88 36.3 223.65 80.93 223.65C125.56 223.65 161.75 227.88 161.75 233.09Z" fill="#D2E8C3"/>
<path d="M21.72 47.55C64.72 76.54 83.72 118.54 78.72 173.54C44.72 117.54 25.72 75.54 21.72 47.55Z" fill="#B6D66D"/>
<path d="M78.72 173.54C75.98 108.81 98.28 64.77 145.61 41.44C110.09 128.57 87.79 172.6 78.72 173.54Z" fill="#87B561"/>
<path d="M79.33 118.94C69.18 62.94 77.94 23.44 105.61 0.440002C94.56 77.77 85.8 117.27 79.33 118.94Z" fill="#A2C061"/>
<path d="M81.11 226.11C60 202.11 60 184.77 81.11 174.11C100.89 181 100.89 198.33 81.11 226.11Z" fill="#91643E"/>
</svg>
