<svg width="165" height="415" viewBox="0 0 165 415" fill="none" xmlns="http://www.w3.org/2000/svg">
<path d="M162.42 405.44C162.42 410.66 126.24 414.89 81.61 414.89C36.97 414.89 0.790039 410.66 0.790039 405.44C0.790039 400.22 36.97 396 81.61 396C126.24 396 162.42 400.22 162.42 405.44Z" fill="#D2E8C3"/>
<path d="M82.11 303.11C85.44 192 65.44 130.11 22.11 117.44C42.11 199 62.11 260.89 82.11 303.11Z" fill="#B6D66D"/>
<path d="M164.11 80.44C104.11 96 76.78 170.22 82.11 303.11C130.78 179.33 158.11 105.11 164.11 80.44Z" fill="#B6D66D"/>
<path d="M81.61 270.09C81.11 265.44 58.61 73.44 122.86 26.44C93.69 157.11 79.78 236.77 81.11 265.44" fill="#D4E168"/>
<path d="M82.11 303.11C46.23 308.66 46.26 342.77 82.2 405.44C113.47 346.33 113.44 312.22 82.11 303.11Z" fill="#91643E"/>
<path d="M77.39 191.77C66.54 81.55 48.11 23.77 22.11 18.44C47.82 106.89 66.25 164.66 77.39 191.77Z" fill="#D4E168"/>
<path d="M96.4 62.94C84.76 33.94 86.96 13.22 103.02 0.769989C112.36 20.1 110.15 40.82 96.4 62.94Z" fill="#FFF797"/>
<path d="M95.75 64.49C93.7 45.79 87.58 36.44 77.39 36.44C72.95 50.29 79.07 59.64 95.75 64.49Z" fill="#FFCF8B"/>
<path d="M82.2 303.11C71.01 247.44 52.26 216.5 25.95 210.27C43.49 262.61 62.24 293.55 82.2 303.11Z" fill="#93C066"/>
</svg>
