<svg width="233" height="352" viewBox="0 0 233 352" fill="none" xmlns="http://www.w3.org/2000/svg">
<path d="M161.63 342.09C161.63 347.31 125.44 351.54 80.81 351.54C36.18 351.54 0 347.31 0 342.09C0 336.88 36.18 332.65 80.81 332.65C125.44 332.65 161.63 336.88 161.63 342.09Z" fill="#D2E8C3"/>
<path d="M89.17 210.17C89.08 210.17 88.98 210.16 88.89 210.15C87.52 210 86.53 208.76 86.68 207.39C91.61 163.09 100.29 44.91 81.56 30.3C80.47 29.46 80.28 27.88 81.13 26.8C81.98 25.71 83.55 25.51 84.64 26.36C95.38 34.74 99.62 67.03 97.6 125.09C96.14 167.19 91.7 207.54 91.65 207.94C91.51 209.22 90.43 210.17 89.17 210.17Z" fill="#F9D890"/>
<path d="M83.1 239.11C54.03 249.7 54.06 283.81 83.19 341.44C114.46 282.33 114.43 248.22 83.1 239.11Z" fill="#91643E"/>
<path d="M24.5 183.94L83.1 239.11C85.37 212.96 65.83 194.57 24.5 183.94Z" fill="#FAE57A"/>
<path d="M197.5 8C121.34 116.25 83.46 189.98 83.88 229.19C76.29 116.4 114.17 42.67 197.5 8Z" fill="#FAEF65"/>
<path d="M29.5 36L83.88 205.65C88.29 103.88 70.17 47.33 29.5 36Z" fill="#F3F09B"/>
<path d="M197.19 52.36C199.53 41.36 207.19 41.36 220.19 52.36C212.64 59.65 204.98 59.65 197.19 52.36Z" fill="#FFF797"/>
<path d="M176.94 60.56C168.94 51.09 171.69 42.03 185.19 33.36C192.03 43.63 189.28 52.7 176.94 60.56Z" fill="#FFCF8B"/>
<path d="M80.69 27.2C72.69 17.73 75.44 8.67 88.94 0C95.78 10.27 93.03 19.34 80.69 27.2Z" fill="#FFCF8B"/>
<path d="M168.87 66.67C176.25 62.65 183.78 65.71 191.44 75.87C180.84 80.94 173.32 77.88 168.87 66.67Z" fill="#FFCF8B"/>
<path d="M163.19 63.61C157.36 59.83 157.94 53.64 164.94 45.03C174.44 50.58 173.86 56.78 163.19 63.61Z" fill="#FFF797"/>
<path d="M86.97 224.51C86.96 224.51 86.94 224.51 86.93 224.51C85.54 224.49 84.45 223.35 84.47 221.97C85.68 155.08 102.72 107.52 135.13 80.62C170.19 51.51 209.93 57.81 211.61 58.1C212.97 58.33 213.89 59.62 213.66 60.98C213.43 62.34 212.14 63.26 210.78 63.03C210.39 62.96 171.52 56.86 138.26 84.52C107.06 110.47 90.65 156.74 89.47 222.06C89.45 223.42 88.33 224.51 86.97 224.51Z" fill="#F9D890"/>
<path d="M83.1 239.11C108.7 170.37 149.17 136 204.5 136C129.96 101.48 89.5 135.85 83.1 239.11Z" fill="#F6DC80"/>
<path d="M98.95 120.83C94.32 68.28 106.67 28 136 0C124.27 56.1 111.92 96.38 98.95 120.83Z" fill="#FFF685"/>
<path d="M209.94 60.25C223.72 56.73 231.28 59.8 232.61 69.45C224.66 77.74 217.11 74.67 209.94 60.25Z" fill="#FFCF8B"/>
<path d="M191.44 61.47C204.55 62.06 211.28 67.47 211.61 77.69C200.87 84.99 194.15 79.58 191.44 61.47Z" fill="#FFF797"/>
<path d="M64.19 31.14C66.53 20.14 74.19 20.14 87.19 31.14C79.64 38.43 71.98 38.43 64.19 31.14Z" fill="#FFF797"/>
<path d="M97.02 38.18C85.97 36.09 85.8 28.43 96.51 15.18C103.97 22.57 104.14 30.24 97.02 38.18Z" fill="#FFF797"/>
<path d="M91.78 46.52C87.31 56.84 79.8 55.32 69.23 41.97C78.08 36.31 85.59 37.83 91.78 46.52Z" fill="#FBE394"/>
<path d="M78.23 22.01C71.01 30.63 64.24 27.03 57.92 11.22C68.01 8.32001 74.78 11.92 78.23 22.01Z" fill="#FBE394"/>
<path d="M83.1 239.11C55.37 165.04 41.5 119 41.5 101C73.63 111.14 87.5 157.18 83.1 239.11Z" fill="#D4E168"/>
</svg>
